<?xml version="1.0" encoding="UTF-8"?>
<!DOCTYPE svg PUBLIC "-//W3C//DTD SVG 1.1//EN" "http://www.w3.org/Graphics/SVG/1.1/DTD/svg11.dtd">
<!-- Creator: CorelDRAW X8 -->
<svg xmlns="http://www.w3.org/2000/svg" xml:space="preserve" width="6.323mm" height="6.35mm" version="1.1" style="shape-rendering:geometricPrecision; text-rendering:geometricPrecision; image-rendering:optimizeQuality; fill-rule:evenodd; clip-rule:evenodd"
viewBox="0 0 632 635"
 xmlns:xlink="http://www.w3.org/1999/xlink">
 <defs>
  <style type="text/css">
   <![CDATA[
    .fil0 {fill:black}
   ]]>
  </style>
 </defs>
 <g id="Camada_x0020_1">
  <metadata id="CorelCorpID_0Corel-Layer"/>
  <path class="fil0" d="M491 318l17 -45c2,-4 1,-10 -3,-13l-37 -30 -8 -47c0,-5 -4,-9 -10,-10l-46 -7 -30 -37c-3,-4 -9,-5 -14,-4l-44 17 -44 -17c-5,-1 -10,0 -14,4l-29 37 -47 7c-5,1 -9,5 -10,10l-8 47 -36 30c-4,3 -6,9 -4,13l17 45 -17 44c-2,5 0,10 4,13l36 30 8 47c1,5 5,9 10,10l47 7 29 37c4,4 9,5 14,4l44 -17 44 17c2,0 3,0 5,0 3,0 7,-1 9,-4l30 -37 46 -7c6,-1 10,-5 10,-10l8 -47 37 -30c4,-3 5,-8 3,-13l-17 -44zm-211 -25c-20,0 -36,-16 -36,-36 0,-20 16,-36 36,-36 20,0 36,16 36,36 0,20 -16,36 -36,36zm0 -48c-7,0 -12,6 -12,12 0,7 5,12 12,12 7,0 12,-5 12,-12 0,-6 -5,-12 -12,-12zm72 169c-20,0 -36,-16 -36,-36 0,-20 16,-36 36,-36 20,0 36,16 36,36 0,20 -16,36 -36,36zm0 -48c-6,0 -12,5 -12,12 0,6 6,12 12,12 7,0 12,-6 12,-12 0,-7 -5,-12 -12,-12zm-96 48c-3,0 -5,-1 -7,-2 -6,-4 -7,-12 -3,-17l121 -169c4,-5 11,-7 16,-3 6,4 7,12 3,17l-120 169c-3,3 -6,5 -10,5z"/>
  <path id="account-convert.svg" class="fil0" d="M435 66l-35 35 -101 -100 17 -1c166,0 303,128 316,291l-39 0c-10,-99 -72,-183 -158,-225l0 0z"/>
  <path id="account-convert.svg_0" class="fil0" d="M197 569l36 -36 101 101 -18 1c-166,0 -303,-128 -316,-291l40 0c9,99 71,184 157,225l0 0z"/>
 </g>
</svg>
