<?xml version="1.0" encoding="UTF-8"?>
<!DOCTYPE svg PUBLIC "-//W3C//DTD SVG 1.1//EN" "http://www.w3.org/Graphics/SVG/1.1/DTD/svg11.dtd">
<!-- Creator: CorelDRAW X8 -->
<svg xmlns="http://www.w3.org/2000/svg" xml:space="preserve" width="6.3236mm" height="6.35mm" version="1.1" style="shape-rendering:geometricPrecision; text-rendering:geometricPrecision; image-rendering:optimizeQuality; fill-rule:evenodd; clip-rule:evenodd"
viewBox="0 0 2785 2797"
 xmlns:xlink="http://www.w3.org/1999/xlink">
 <defs>
  <style type="text/css">
   <![CDATA[
    .fil0 {fill:black}
   ]]>
  </style>
 </defs>
 <g id="Camada_x0020_1">
  <metadata id="CorelCorpID_0Corel-Layer"/>
  <g>
   <path id="account-convert.svg" class="fil0" d="M868 2505l157 -156 444 444 -76 4c-733,0 -1334,-564 -1393,-1282l175 0c42,438 314,809 693,990l0 0zm1049 -2214l-157 156 -444 -444 77 -3c732,0 1333,564 1392,1282l-175 0c-42,-438 -314,-808 -693,-991l0 0zm-1224 1690c0,-233 466,-361 700,-361 233,0 699,128 699,361l0 117 -1399 0 0 -117 0 0zm1049 -932c0,193 -156,349 -349,349 -194,0 -350,-156 -350,-349 0,-194 156,-350 350,-350 193,0 349,156 349,350z"/>
  </g>
 </g>
</svg>
